HIERARCHY
ROOT Hips
{
 OFFSET 0.000000 0.000000 0.000000
 CHANNELS 6 Xposition Yposition Zposition Yrotation Xrotation Zrotation
 JOINT Chest
 {
  OFFSET 0.000000 9.585900 0.002600
  CHANNELS 3 Yrotation Xrotation Zrotation
  JOINT Chest2
  {
   OFFSET 0.000000 9.601200 -0.005300
   CHANNELS 3 Yrotation Xrotation Zrotation
   JOINT Chest3
   {
    OFFSET 0.000000 9.561800 0.000000
    CHANNELS 3 Yrotation Xrotation Zrotation
    JOINT Chest4
    {
     OFFSET 0.000000 9.552100 0.000000
     CHANNELS 3 Yrotation Xrotation Zrotation
     JOINT Neck
     {
      OFFSET 0.000000 14.453000 0.000000
      CHANNELS 3 Yrotation Xrotation Zrotation
      JOINT Head
      {
       OFFSET 0.000000 8.936500 -0.011300
       CHANNELS 3 Yrotation Xrotation Zrotation
       End Site
       {
        OFFSET 0.000000 17.073600 -0.006000
       }
      }
     }
     JOINT RightCollar
     {
      OFFSET -2.921100 9.558500 0.000000
      CHANNELS 3 Yrotation Xrotation Zrotation
      JOINT RightShoulder
      {
       OFFSET -13.519700 0.000000 0.000000
       CHANNELS 3 Yrotation Xrotation Zrotation
       JOINT RightElbow
       {
        OFFSET 0.000000 -29.696600 0.000000
        CHANNELS 3 Yrotation Xrotation Zrotation
        JOINT RightWrist
        {
         OFFSET 0.000000 -24.004700 0.000000
         CHANNELS 3 Yrotation Xrotation Zrotation
         End Site
         {
          OFFSET 0.000000 -17.728500 0.000000
         }
        }
       }
      }
     }
     JOINT LeftCollar
     {
      OFFSET 2.921100 9.558500 0.000000
      CHANNELS 3 Yrotation Xrotation Zrotation
      JOINT LeftShoulder
      {
       OFFSET 13.519700 0.000000 0.000000
       CHANNELS 3 Yrotation Xrotation Zrotation
       JOINT LeftElbow
       {
        OFFSET 0.000000 -29.696600 0.000000
        CHANNELS 3 Yrotation Xrotation Zrotation
        JOINT LeftWrist
        {
         OFFSET 0.000000 -24.004700 0.000000
         CHANNELS 3 Yrotation Xrotation Zrotation
         End Site
         {
          OFFSET 0.000000 -17.728500 0.000000
         }
        }
       }
      }
     }
    }
   }
  }
 }
 JOINT RightHip
 {
  OFFSET -7.771700 -0.012900 -0.001300
  CHANNELS 3 Yrotation Xrotation Zrotation
  JOINT RightKnee
  {
   OFFSET 0.000000 -40.869800 0.001200
   CHANNELS 3 Yrotation Xrotation Zrotation
   JOINT RightAnkle
   {
    OFFSET 0.000000 -39.717900 0.002100
    CHANNELS 3 Yrotation Xrotation Zrotation
    JOINT RightToe
    {
     OFFSET 0.000000 -4.965400 11.033500
     CHANNELS 3 Yrotation Xrotation Zrotation
     End Site
     {
      OFFSET 0.000000 -1.423100 5.872300
     }
    }
   }
  }
 }
 JOINT LeftHip
 {
  OFFSET 7.771700 -0.012900 -0.001300
  CHANNELS 3 Yrotation Xrotation Zrotation
  JOINT LeftKnee
  {
   OFFSET 0.000000 -40.869800 0.001200
   CHANNELS 3 Yrotation Xrotation Zrotation
   JOINT LeftAnkle
   {
    OFFSET 0.000000 -39.717900 0.002100
    CHANNELS 3 Yrotation Xrotation Zrotation
    JOINT LeftToe
    {
     OFFSET 0.000000 -4.965400 11.033500
     CHANNELS 3 Yrotation Xrotation Zrotation
     End Site
     {
      OFFSET 0.000000 -1.423100 5.872300
     }
    }
   }
  }
 }
}
MOTION
Frames: 8
Frame Time: 0.008333
-52.328012 55.042489 46.152532 -176.510494 -30.564126 -10.965934 0.640253 14.038069 6.629536 -0.037231 7.858727 2.343339 -0.013709 9.831763 2.934587 -0.036901 7.855874 2.338875 4.968194 20.580697 -2.409508 5.940908 -3.651934 -3.758680 2.263873 4.660800 -2.222051 -19.920306 -13.477175 1.282042 -116.036044 -83.540245 134.099587 12.955676 -4.394851 9.689740 -8.864377 2.811156 -3.940127 5.889802 -3.508176 1.673240 -81.897710 -75.441296 85.750740 12.269490 -14.155751 -4.260627 -17.362687 -35.817389 3.069160 0.960754 87.442565 -2.972576 1.489281 -18.175783 3.405963 -0.078685 0.412001 -0.075688 -17.084714 -47.434301 15.152009 164.533736 78.777761 158.561472 -1.709755 -15.412574 1.926946 -1.375310 -3.336977 -0.631055
-52.312557 55.048125 46.153319 -176.550407 -30.575435 -10.947107 0.644939 14.055796 6.617667 -0.013002 7.852984 2.349150 -0.022099 9.838935 2.937330 -0.028946 7.851851 2.336983 4.975480 20.613976 -2.388900 5.963016 -3.546087 -3.699642 2.230643 4.682568 -2.182166 -19.869378 -13.576582 1.225042 -121.494198 -83.455009 139.610697 12.917215 -4.474843 9.419065 -8.907821 2.876226 -3.927906 5.883515 -3.470989 1.700202 -82.296074 -75.458029 86.181054 12.306745 -14.277462 -4.086543 -17.382491 -35.817983 3.084649 1.295020 87.448601 -2.643209 1.499966 -18.168954 3.389056 -0.080539 0.411886 -0.077412 -17.034842 -47.425793 15.151882 164.634550 78.782224 158.674010 -1.680338 -15.425224 1.930749 -1.394309 -3.334566 -0.639188
-52.297011 55.053890 46.154612 -176.587284 -30.588005 -10.931377 0.647541 14.075604 6.606483 -0.011905 7.859069 2.353030 -0.006670 9.835619 2.938781 -0.045976 7.868806 2.346241 4.998791 20.701249 -2.340343 5.983660 -3.497405 -3.689349 2.219550 4.691963 -2.159132 -19.807445 -13.688189 1.169184 -126.222095 -83.304016 144.371632 12.868994 -4.564682 9.178659 -8.929656 2.922667 -3.930408 5.909055 -3.465455 1.709367 -82.625186 -75.483950 86.505142 12.345029 -14.387525 -3.929988 -17.405794 -35.817124 3.079931 2.019102 87.452680 -1.892640 1.502102 -18.161148 3.333343 -0.074750 0.411065 -0.078560 -16.985145 -47.414602 15.151410 164.729240 78.787863 158.781347 -1.651495 -15.441077 1.936085 -1.424373 -3.328619 -0.643526
-52.281293 55.059651 46.156619 -176.622171 -30.601167 -10.920443 0.665504 14.089833 6.606276 -0.064954 7.897508 2.352575 -0.010142 9.862729 2.950939 -0.049083 7.890304 2.355915 5.046669 20.742607 -2.327801 6.001620 -3.456945 -3.681714 2.248460 4.652268 -2.171012 -19.780561 -13.856640 1.129267 -129.749775 -83.139375 147.958283 12.808331 -4.661698 8.972741 -8.912150 2.910952 -3.958480 5.953260 -3.511913 1.701547 -82.785960 -75.510075 86.635296 12.388086 -14.487574 -3.794724 -17.430528 -35.813532 3.074340 2.840023 87.453950 -1.044494 1.527029 -18.153896 3.271183 -0.077187 0.410370 -0.084603 -16.938146 -47.403794 15.154884 164.810978 78.792272 158.877432 -1.624516 -15.452173 1.939213 -1.445427 -3.325733 -0.649976
-52.264756 55.064915 46.160336 -176.666058 -30.610304 -10.913693 0.693818 14.099286 6.615107 -0.082724 7.920957 2.355059 -0.012781 9.879670 2.956991 -0.051388 7.903830 2.360790 5.061476 20.784001 -2.302136 6.012300 -3.409205 -3.657564 2.243235 4.642886 -2.161105 -19.761453 -14.000540 1.100097 -132.610911 -82.931237 150.890379 12.729445 -4.765784 8.776533 -8.932470 2.935060 -3.967001 5.988041 -3.513896 1.707249 -83.090327 -75.555172 86.949088 12.457004 -14.584092 -3.695664 -17.453177 -35.812749 3.089629 3.434771 87.452507 -0.432200 1.563341 -18.144151 3.217376 -0.092197 0.411348 -0.083581 -16.885964 -47.393848 15.171879 164.898892 78.799828 158.986088 -1.615039 -15.474859 1.939335 -1.451028 -3.310594 -0.650307
-52.250771 55.069671 46.164657 -176.689650 -30.617672 -10.906858 0.658708 14.144334 6.594536 -0.053949 7.918689 2.365556 -0.015818 9.898238 2.962915 -0.043124 7.902285 2.360867 5.061321 20.826963 -2.269783 6.016090 -3.377810 -3.633354 2.232883 4.648355 -2.148823 -19.739876 -14.132587 1.071129 -134.716160 -82.693854 153.069097 12.630814 -4.867717 8.559349 -8.948971 2.952202 -3.971914 6.013161 -3.498284 1.714391 -83.391000 -75.602997 87.259435 12.529291 -14.683889 -3.606716 -17.487202 -35.813015 3.092709 4.033567 87.451492 0.182659 1.588779 -18.137044 3.165612 -0.048498 0.413723 -0.081147 -16.861866 -47.387064 15.182740 164.951503 78.804424 159.046914 -1.604215 -15.483786 1.938269 -1.458904 -3.303922 -0.652931
-52.232311 55.077577 46.165673 -176.736031 -30.660160 -10.922544 0.701409 14.188857 6.628437 -0.073937 7.943569 2.366772 0.001739 9.891366 2.964584 -0.066889 7.943252 2.373488 5.066367 20.844357 -2.245938 6.016050 -3.358397 -3.608645 2.242741 4.639652 -2.144880 -19.711589 -14.267056 1.037357 -136.076545 -82.451036 154.496748 12.513454 -4.958448 8.300655 -8.961762 2.976318 -3.977561 6.057917 -3.558872 1.700410 -83.517605 -75.655442 87.346341 12.559297 -14.797798 -3.474986 -17.512637 -35.767404 3.128518 4.548523 87.440608 0.714980 1.617859 -18.123770 3.108730 -0.083313 0.412666 -0.076513 -16.841217 -47.341681 15.229687 164.994482 78.805863 159.095097 -1.557199 -15.460627 1.943924 -1.501380 -3.332325 -0.672176
-52.220559 55.082179 46.170479 -176.764956 -30.677225 -10.910940 0.713414 14.211898 6.623311 -0.094244 7.969283 2.369403 0.019626 9.884116 2.964640 -0.103494 8.001811 2.391972 5.079422 20.841286 -2.230222 6.015295 -3.344941 -3.583743 2.270673 4.616603 -2.148237 -19.673367 -14.404474 0.998140 -136.821200 -82.215567 155.298808 12.381526 -5.033708 7.987710 -8.969942 3.006370 -3.988215 6.086372 -3.594884 1.692470 -83.775726 -75.719779 87.608548 12.569978 -14.922764 -3.332807 -17.533834 -35.761733 3.126180 5.095835 87.440649 1.280456 1.631076 -18.113927 3.059729 -0.044340 0.413008 -0.073662 -16.811131 -47.327058 15.237822 165.091648 78.812039 159.185566 -1.521965 -15.462778 1.954459 -1.527137 -3.332812 -0.680187
